<svg width="16" height="15" viewBox="0 0 16 15" fill="none" xmlns="http://www.w3.org/2000/svg">
<path fill-rule="evenodd" clip-rule="evenodd" d="M0.5 4.75C0.5 3.23122 1.73122 2 3.25 2H12.75C14.2688 2 15.5 3.23122 15.5 4.75V12C15.5 13.5188 14.2688 14.75 12.75 14.75H3.25C1.73122 14.75 0.5 13.5188 0.5 12V4.75ZM3.25 3.5C2.55964 3.5 2 4.05964 2 4.75V12C2 12.6904 2.55964 13.25 3.25 13.25H12.75C13.4404 13.25 14 12.6904 14 12V4.75C14 4.05964 13.4404 3.5 12.75 3.5H3.25Z" fill="white"/>
<path fill-rule="evenodd" clip-rule="evenodd" d="M4.25 0.5C4.66421 0.5 5 0.835786 5 1.25V2.75C5 3.16421 4.66421 3.5 4.25 3.5C3.83579 3.5 3.5 3.16421 3.5 2.75V1.25C3.5 0.835786 3.83579 0.5 4.25 0.5ZM11.75 0.5C12.1642 0.5 12.5 0.835786 12.5 1.25V2.75C12.5 3.16421 12.1642 3.5 11.75 3.5C11.3358 3.5 11 3.16421 11 2.75V1.25C11 0.835786 11.3358 0.5 11.75 0.5Z" fill="white"/>
<path fill-rule="evenodd" clip-rule="evenodd" d="M0.875 5.75C0.875 5.33579 1.21079 5 1.625 5H14C14.4142 5 14.75 5.33579 14.75 5.75C14.75 6.16421 14.4142 6.5 14 6.5H1.625C1.21079 6.5 0.875 6.16421 0.875 5.75Z" fill="white"/>
</svg>
