<svg width="10" height="8" viewBox="0 0 10 8" fill="none" xmlns="http://www.w3.org/2000/svg">
<path d="M8.33905 0.592028C8.49752 0.441153 8.70841 0.357744 8.92722 0.359399C9.14602 0.361055 9.35562 0.447646 9.5118 0.600902C9.66797 0.754158 9.7585 0.96209 9.76429 1.18082C9.77007 1.39956 9.69066 1.61198 9.5428 1.77328L5.05405 7.38703C4.97686 7.47016 4.8837 7.53688 4.78015 7.58319C4.67659 7.6295 4.56475 7.65445 4.45133 7.65655C4.33791 7.65865 4.22523 7.63786 4.12002 7.59542C4.01482 7.55297 3.91926 7.48975 3.83905 7.40953L0.862297 4.43278C0.779399 4.35553 0.712909 4.26238 0.666793 4.15888C0.620677 4.05538 0.59588 3.94366 0.593881 3.83037C0.591882 3.71708 0.612723 3.60454 0.655159 3.49948C0.697595 3.39442 0.760758 3.29898 0.840879 3.21886C0.921 3.13874 1.01644 3.07558 1.1215 3.03314C1.22656 2.9907 1.33909 2.96986 1.45239 2.97186C1.56568 2.97386 1.6774 2.99866 1.7809 3.04477C1.8844 3.09089 1.97755 3.15738 2.0548 3.24028L4.41055 5.5949L8.31767 0.616779C8.32471 0.608117 8.33222 0.599854 8.34017 0.592028H8.33905Z" fill="white"/>
</svg>
